# xmcd
#
# Track frame offsets:
#	150
#	15610
#	29680
#	49322
#	62710
#	79303
#	98208
#	114770
#	127138
#	140068
#	168705
#	188539
#	205161
#	229919
#	241344
#	260999
#	274948
#	297027
#	315982
#	339728
#
# Disc length: 4728
#
# Revision: 1
# Processed by: cddbd v1.5.1PL0 Copyright (c) Steve Scherf et al.
# Submitted via: CDex 1.51
# Normalized: r0:DSETVAR1
#
DISCID=32127614
DTITLE=Various Artist - Country Outlaws
DYEAR=1900
DGENRE=Country
TTITLE0=Chip Taylor - (I Want) The Real Thing 1973
TTITLE1=Chip Taylor - I Wasn't Born In Tennessee 1973
TTITLE2=Chip Taylor - Son Of A Rotten Gambler 1973
TTITLE3=Doug Sahm and Band - Texas Tornado 1973
TTITLE4=Steve Young - Lonesome, On'ry and Mean 1973
TTITLE5=Steve Young - Montgomery In The Rain 1973
TTITLE6=Steve Young - Seven Bridges Road 1973
TTITLE7=Billy Joe Shaver - Old Five And Dimers Like Me 1973
TTITLE8=Billy Joe Shaver - Hardworkin' Man 1987
TTITLE9=Butch Hancock - Boxcars 1995
TTITLE10=Butch Hancock - West Texas Waltz 1995
TTITLE11=Guy Clark - Immigrant Eyes 1988
TTITLE12=Guy Clark - Desperadoes Waiting For A Train (Live) 1997
TTITLE13=Jerry Jeff Walker - Gypsy Songman 1986
TTITLE14=Jerry Jeff Walker - Mr. Bojangles 1986
TTITLE15=Jimmie Dale Gilmore - Banks Of Guadalupe 2000
TTITLE16=Jimmie Dale Gilmore - Ripple 2000
TTITLE17=Joe Ely - Me And Billy The Kid (Live) 2000
TTITLE18=Joe Ely - My Eyes Got Lucky (Live) 2000
TTITLE19=Rodney Crowell - Couldn't Leave You If I Tried 1988
EXTD=
EXTT0=
EXTT1=
EXTT2=
EXTT3=
EXTT4=
EXTT5=
EXTT6=
EXTT7=
EXTT8=
EXTT9=
EXTT10=
EXTT11=
EXTT12=
EXTT13=
EXTT14=
EXTT15=
EXTT16=
EXTT17=
EXTT18=
EXTT19=
PLAYORDER=
